<svg width="522" height="10" viewBox="0 0 522 10" fill="none" xmlns="http://www.w3.org/2000/svg">
<path d="M1.2373 7.44462C8.60038 7.44462 15.9635 7.44462 23.3265 7.44462C30.27 7.44462 35.4069 4.6128 42.7199 4.40083C60.6687 3.88057 83.2366 1.19437 100.9 5.27048C118.56 9.34599 133.646 9.33455 151.601 7.44462C178.534 4.60958 207.423 10.3685 233.783 5.09655C240.618 3.7296 247.799 4.31386 254.742 4.31386C266.874 4.31386 278.882 2.82242 291.006 2.74848C323.929 2.54773 356.607 4.31386 389.451 4.31386C395.928 4.31386 401.903 6.92967 408.323 7.35766C427.451 8.63288 446.973 5.87924 466.155 5.87924C482.901 5.87924 505.273 7.45128 520.943 1.18311" stroke="#7C57FC" stroke-width="2" stroke-linecap="round"/>
</svg>
