<svg width="24" height="24" viewBox="0 0 24 24" fill="none" xmlns="http://www.w3.org/2000/svg">
<path d="M12.9375 13.5H4.8125V11.7812H12.9375C13.6875 11.7812 14.3073 11.651 14.7969 11.3906C15.2865 11.125 15.651 10.7656 15.8906 10.3125C16.1302 9.85417 16.25 9.33333 16.25 8.75C16.25 8.16667 16.1302 7.64844 15.8906 7.19531C15.651 6.73698 15.2865 6.3776 14.7969 6.11719C14.3073 5.85156 13.6875 5.71875 12.9375 5.71875H9.28125V20H7.34375V4H12.9375C14.125 4 15.1042 4.21615 15.875 4.64844C16.6458 5.08073 17.2188 5.65625 17.5938 6.375C17.9688 7.09375 18.1563 7.88542 18.1563 8.75C18.1563 9.61458 17.9688 10.4062 17.5938 11.125C17.2188 11.8438 16.6458 12.4193 15.875 12.8516C15.1042 13.2839 14.125 13.5 12.9375 13.5ZM12.8125 15V16.7187H4.8125V15H12.8125Z" fill="#7C57FC"/>
</svg>
