<svg width="28" height="18" viewBox="0 0 28 18" fill="none" xmlns="http://www.w3.org/2000/svg">
<path d="M26.9008 17.6134H23.8442C22.6869 17.6134 22.3292 16.6761 20.2503 14.53C18.4393 12.744 17.6383 12.5039 17.1937 12.5039C16.5694 12.5039 16.3913 12.6854 16.3913 13.5627V16.3746C16.3913 17.1318 16.1542 17.5848 14.1946 17.5848C10.2416 17.3147 6.84408 15.1186 4.87179 11.9181L4.84234 11.8681C2.55303 8.9719 0.865504 5.48131 0.0308606 1.66353L0 1.49636C0 1.04343 0.178151 0.61907 1.03945 0.61907H4.09607C4.86759 0.61907 5.16497 0.981988 5.46376 1.82784C6.97594 6.27431 9.50091 10.175 10.5404 10.175C10.9261 10.175 11.1043 9.9935 11.1043 8.99619V4.39685C10.985 2.27935 9.88667 2.09932 9.88667 1.34348C9.8993 0.939123 10.2247 0.616211 10.6231 0.616211C10.6357 0.616211 10.647 0.616212 10.6596 0.617641H15.4683C16.122 0.617641 16.359 0.980558 16.359 1.7664V7.96745C16.359 8.63184 16.6564 8.87474 16.8346 8.87474C17.2203 8.87474 17.5486 8.63184 18.2598 7.90744C19.7383 6.06856 21.0022 3.96534 21.9659 1.69782L22.0304 1.52636C22.2338 1.00771 22.722 0.647645 23.2929 0.647645C23.3195 0.647645 23.3448 0.649073 23.3714 0.650502H23.3672H26.4238C27.3441 0.650502 27.5531 1.13201 27.3441 1.79927C26.118 4.54973 24.7405 6.91298 23.1442 9.10192L23.2171 8.99619C22.8917 9.54057 22.7725 9.78204 23.2171 10.3893C23.5426 10.8422 24.6129 11.7795 25.3255 12.6268C26.3565 13.6655 27.2206 14.8743 27.8729 16.2088L27.908 16.2874C28.2054 17.1618 27.7593 17.6162 26.898 17.6162L26.9008 17.6134Z" fill="#7C57FC"/>
</svg>
