<svg width="22" height="23" viewBox="0 0 22 23" fill="none" xmlns="http://www.w3.org/2000/svg">
<path d="M16.2783 13.258C16.2355 13.2374 14.6316 12.4477 14.3466 12.3451C14.2303 12.3033 14.1056 12.2625 13.9731 12.2625C13.7565 12.2625 13.5746 12.3704 13.4328 12.5824C13.2726 12.8206 12.7876 13.3875 12.6378 13.5569C12.6182 13.5792 12.5915 13.6059 12.5755 13.6059C12.5611 13.6059 12.3129 13.5037 12.2378 13.4711C10.5173 12.7237 9.21134 10.9265 9.03227 10.6234C9.0067 10.5799 9.00563 10.5601 9.00542 10.5601C9.0117 10.537 9.06956 10.479 9.09942 10.4491C9.18677 10.3627 9.28142 10.2487 9.37299 10.1385C9.41634 10.0863 9.45977 10.034 9.50242 9.98473C9.63527 9.83016 9.69442 9.71016 9.76299 9.57116L9.79892 9.49895C9.96634 9.16631 9.82334 8.88559 9.77713 8.79495C9.7392 8.71909 9.06199 7.08466 8.98999 6.91295C8.81684 6.49859 8.58806 6.30566 8.27013 6.30566C8.24063 6.30566 8.27013 6.30566 8.14642 6.31088C7.99577 6.31724 7.17542 6.42524 6.8127 6.65388C6.42806 6.89638 5.77734 7.66938 5.77734 9.02881C5.77734 10.2523 6.55377 11.4075 6.88713 11.8469C6.89542 11.8579 6.91063 11.8804 6.9327 11.9127C8.20934 13.7772 9.80084 15.1589 11.4142 15.8034C12.9674 16.4238 13.7029 16.4955 14.1211 16.4955H14.1211C14.2968 16.4955 14.4375 16.4817 14.5616 16.4695L14.6403 16.462C15.1768 16.4144 16.356 15.8034 16.6242 15.0581C16.8355 14.471 16.8912 13.8296 16.7506 13.5968C16.6543 13.4385 16.4884 13.3589 16.2783 13.258Z" fill="#7C57FC"/>
<path d="M11.1953 0.616211C5.23698 0.616211 0.389555 5.42721 0.389555 11.3407C0.389555 13.2534 0.901412 15.1256 1.87105 16.7641L0.0151263 22.2388C-0.0194452 22.3409 0.00626912 22.4537 0.0817691 22.5306C0.136269 22.5862 0.210198 22.6162 0.285698 22.6162C0.314626 22.6162 0.343769 22.6119 0.372198 22.6028L6.08077 20.7888C7.64291 21.6234 9.40848 22.064 11.1953 22.064C17.1531 22.0641 22 17.2536 22 11.3407C22 5.42721 17.1531 0.616211 11.1953 0.616211ZM11.1953 19.8301C9.51391 19.8301 7.88541 19.3446 6.48555 18.426C6.43848 18.3951 6.38384 18.3792 6.32884 18.3792C6.29977 18.3792 6.27063 18.3836 6.24227 18.3926L3.38263 19.3016L4.30577 16.5781C4.33563 16.49 4.3207 16.3928 4.2657 16.3176C3.1997 14.8611 2.6362 13.1401 2.6362 11.3407C2.6362 6.65907 6.47577 2.85021 11.1952 2.85021C15.9141 2.85021 19.7532 6.65907 19.7532 11.3407C19.7533 16.0218 15.9142 19.8301 11.1953 19.8301Z" fill="#7C57FC"/>
</svg>
