<svg width="36" height="37" viewBox="0 0 36 37" fill="none" xmlns="http://www.w3.org/2000/svg">
<rect y="0.643066" width="36" height="36" rx="10" fill="#CCFA57"/>
<path d="M17 23C19.2091 23 22 21.2091 22 19C22 16.7909 20.7091 15 18.5 15C16.2909 15 14 16.7909 14 19C14 21.2091 14.7909 23 17 23Z" stroke="#222226" stroke-width="2" stroke-linecap="round" stroke-linejoin="round"/>
<path d="M17.9996 9C17.5 10 17.9996 11 17.9996 11" stroke="#222226" stroke-width="2" stroke-linecap="round" stroke-linejoin="round"/>
<path d="M18 27C18 27 18.5 28.5 18 29" stroke="#222226" stroke-width="2" stroke-linecap="round" stroke-linejoin="round"/>
<path d="M10.9297 11.9301L12.3397 13.3401" stroke="#222226" stroke-width="2" stroke-linecap="round" stroke-linejoin="round"/>
<path d="M23.6602 24.66L25.0702 26.07" stroke="#222226" stroke-width="2" stroke-linecap="round" stroke-linejoin="round"/>
<path d="M8 19H10" stroke="#222226" stroke-width="2" stroke-linecap="round" stroke-linejoin="round"/>
<path d="M26 19H28" stroke="#222226" stroke-width="2" stroke-linecap="round" stroke-linejoin="round"/>
<path d="M12.3397 24.66L10.9297 26.07" stroke="#222226" stroke-width="2" stroke-linecap="round" stroke-linejoin="round"/>
<path d="M25.0702 11.9301L23.6602 13.3401" stroke="#222226" stroke-width="2" stroke-linecap="round" stroke-linejoin="round"/>
</svg>
