<svg width="36" height="37" viewBox="0 0 36 37" fill="none" xmlns="http://www.w3.org/2000/svg">
<rect y="0.643066" width="36" height="36" rx="10" fill="#CCFA57"/>
<path d="M15 19H15.01" stroke="#222226" stroke-width="2" stroke-linecap="round" stroke-linejoin="round"/>
<path d="M21 19H21.01" stroke="#222226" stroke-width="2" stroke-linecap="round" stroke-linejoin="round"/>
<path d="M16 23C16.5 23.3 17.7 23.5 18.5 23.5C19.3 23.5 19.5 23.3 20 23" stroke="#222226" stroke-width="2" stroke-linecap="round" stroke-linejoin="round"/>
<path d="M25.0005 13.3C25.9065 14.4357 26.524 15.7738 26.8005 17.2C27.1386 17.3638 27.4238 17.6195 27.6233 17.9378C27.8229 18.2562 27.9287 18.6243 27.9287 19C27.9287 19.3757 27.8229 19.7438 27.6233 20.0622C27.4238 20.3805 27.1386 20.6362 26.8005 20.8C26.3688 22.8135 25.2597 24.618 23.6582 25.9125C22.0567 27.207 20.0597 27.9132 18.0005 27.9132C15.9412 27.9132 13.9443 27.207 12.3428 25.9125C10.7413 24.618 9.63219 22.8135 9.20049 20.8C8.86234 20.6362 8.57717 20.3805 8.37763 20.0622C8.1781 19.7438 8.07227 19.3757 8.07227 19C8.07227 18.6243 8.1781 18.2562 8.37763 17.9378C8.57717 17.6195 8.86234 17.3638 9.20049 17.2C9.61475 15.1705 9.89687 13.8117 11.5 12.5C13.1031 11.1883 14.4287 9.50418 16.5 9.5C18.5 9.5 21.5263 10.3549 21.5 12.0344C21.4804 13.2845 20.6005 15 19.5005 15C18.7005 15 18.0005 14.6 18.0005 14" stroke="#222226" stroke-width="2" stroke-linecap="round" stroke-linejoin="round"/>
</svg>
