<svg width="36" height="37" viewBox="0 0 36 37" fill="none" xmlns="http://www.w3.org/2000/svg">
<rect y="0.643066" width="36" height="36" rx="10" fill="#CCFA57"/>
<path d="M27.0004 18.5C27.0038 19.8199 26.6955 21.1219 26.1004 22.3C25.3948 23.7118 24.3101 24.8992 22.9678 25.7293C21.6255 26.5594 20.0786 26.9994 18.5004 27C17.1805 27.0035 15.8785 26.6951 14.7004 26.1C14.7004 26.1 10.5013 30.5 9.50062 29.5C8.49998 28.5 10.9004 22.3 10.9004 22.3C10.3053 21.1219 9.99695 19.8199 10.0004 18.5C10.001 16.9218 10.441 15.3749 11.2711 14.0326C12.1012 12.6903 13.2886 11.6056 14.7004 10.9C15.8785 10.305 17.1805 9.99659 18.5004 10H19.0004C21.0847 10.115 22.0419 10.6735 24 12C27.0004 14.0326 26.8854 15.9157 27.0004 18V18.5Z" stroke="#222226" stroke-width="2" stroke-linecap="round" stroke-linejoin="round"/>
</svg>
