<svg width="36" height="36" viewBox="0 0 36 36" fill="none" xmlns="http://www.w3.org/2000/svg">
<rect width="36" height="36" rx="10" fill="#CCFA57"/>
<path d="M14.5 20.5C15.163 20.5 15.7989 20.2366 16.2678 19.7678C16.7366 19.2989 17 18.663 17 18C17 16.62 16.5 16 16 15C14.928 12.857 15.776 10.946 18 9C18.5 11.5 19 14 21.5 15.5C24 17 25 19 25 21C25 21.9193 24.8189 22.8295 24.4672 23.6788C24.1154 24.5281 23.5998 25.2997 22.9497 25.9497C22.2997 26.5998 21.5281 27.1154 20.6788 27.4672C19.8295 27.8189 18.9193 28 18 28C17.0807 28 16.1705 27.8189 15.3212 27.4672C14.4719 27.1154 13.7003 26.5998 13.0503 25.9497C12.4002 25.2997 11.8846 24.5281 11.5328 23.6788C11.1811 22.8295 11 21.9193 11 21C11 19.847 11.433 18.706 12 18C12 18.663 12.2634 19.2989 12.7322 19.7678C13.2011 20.2366 13.837 20.5 14.5 20.5Z" stroke="#222226" stroke-width="2" stroke-linecap="round" stroke-linejoin="round"/>
</svg>
