<svg width="36" height="36" viewBox="0 0 36 36" fill="none" xmlns="http://www.w3.org/2000/svg">
<rect width="36" height="36" rx="10" fill="#CCFA57"/>
<path d="M22 27V25C22 23.9391 21.5786 22.9217 20.8284 22.1716C20.0783 21.4214 19.0609 21 18 21C18 21 14.5609 21 13.5 21C12.4391 21 9.92172 21.4214 9.17157 22.1716C8.42143 22.9217 8 23.9391 8 25V27" stroke="#222226" stroke-width="2" stroke-linecap="round" stroke-linejoin="round"/>
<path d="M15 17C17.2091 17 19 15.2091 19 13C19 10.7909 18.5 9 15.5 9C12.5 9 11 10.7909 11 13C11 15.2091 12.7909 17 15 17Z" stroke="#222226" stroke-width="2" stroke-linecap="round" stroke-linejoin="round"/>
<path d="M28 27V25C27.9993 24.1137 27.7044 23.2528 27.1614 22.5523C26.6184 21.8519 25.8581 21.3516 25 21.13" stroke="#222226" stroke-width="2" stroke-linecap="round" stroke-linejoin="round"/>
<path d="M22 9.13C22.8604 9.35031 23.623 9.85071 24.1676 10.5523C24.7122 11.2539 25.0078 12.1168 25.0078 13.005C25.0078 13.8932 24.7122 14.7561 24.1676 15.4577C23.623 16.1593 22.8604 16.6597 22 16.88" stroke="#222226" stroke-width="2" stroke-linecap="round" stroke-linejoin="round"/>
</svg>
